<svg xmlns="http://www.w3.org/2000/svg" xmlns:xlink="http://www.w3.org/1999/xlink" viewBox="0 0 506.22 427.25"><defs><style>.cls-1{fill:url(#linear-gradient);}.cls-2{fill:url(#linear-gradient-2);}.cls-3{fill:url(#linear-gradient-3);}.cls-4{fill:url(#linear-gradient-4);}.cls-5{fill:url(#linear-gradient-5);}</style><linearGradient id="linear-gradient" y1="213.62" x2="135.39" y2="213.62" gradientUnits="userSpaceOnUse"><stop offset="0" stop-color="#6cc3f4"/><stop offset="0.32" stop-color="#80abe9"/><stop offset="0.65" stop-color="#b26dcd"/><stop offset="1" stop-color="#fa15a6"/></linearGradient><linearGradient id="linear-gradient-2" x1="191.87" y1="273.21" x2="319.94" y2="273.21" xlink:href="#linear-gradient"/><linearGradient id="linear-gradient-3" x1="113.02" y1="213.84" x2="214.34" y2="213.84" gradientUnits="userSpaceOnUse"><stop offset="0" stop-color="#572eff"/><stop offset="0.21" stop-color="#493ad8"/><stop offset="0.52" stop-color="#364ca0"/><stop offset="0.7" stop-color="#414e81"/><stop offset="1" stop-color="#515151"/></linearGradient><linearGradient id="linear-gradient-4" x1="394.18" y1="320.84" x2="506.22" y2="320.84" xlink:href="#linear-gradient"/><linearGradient id="linear-gradient-5" x1="305.74" y1="272.07" x2="409.24" y2="272.07" xlink:href="#linear-gradient-3"/></defs><g id="Layer_2" data-name="Layer 2"><g id="Layer_1-2" data-name="Layer 1"><path class="cls-1" d="M113,199.76c-1.38,4.84-.68,9.87-1.49,14.79-1.42,8.59-2.06,17.28-3.35,25.9-1,6.59-1.14,13.39-1.86,20.08q-2.77,25.67-5.58,51.32-2.49,22.88-5,45.74c-1,9.3-1.61,18.68-3.19,27.88-2,11.67-6.22,22.56-15.33,30.72-9.39,8.42-20.57,11.73-33.14,10.94-11.16-.7-21.14-4.43-29.06-12.2C3.74,403.85-1.57,390.43.4,374.28c2.81-23,5.13-46.08,7.72-69.12,2.09-18.46,4.34-36.9,6.39-55.36,1.66-15,3.08-30,4.73-45,1.61-14.6,3.42-29.17,5.05-43.77,1.39-12.38,2.62-24.78,4-37.17,1.31-12,2.8-24,4-36a107.26,107.26,0,0,1,8-32.17A109.27,109.27,0,0,1,51.56,36.34C63.67,19.13,80.48,8.83,100.32,3.09c10.47-3,21.27-3.48,32.14-2.84,3.37.2,2.78,2.48,2.93,4.51-2.47,1.89-1.2,4.67-1.49,7-1.37,10.82-2.47,21.68-3.65,32.53-1.12,10.25-2.18,20.5-3.33,30.74-1.34,12-2.82,23.91-4.12,35.88-1.4,12.84-2.39,25.73-4.07,38.53C116.53,166.18,115,183,113,199.76Z"/><path class="cls-2" d="M305.79,259.42c-2,4.95-1.44,10.27-2.2,15.4-.88,5.91-.88,11.95-1.81,17.84-2.51,16-3.52,32.11-5,48.19-2.18,23-11.22,42.79-27.69,58.77-18.72,18.16-41.43,27.11-67.7,26.44Q198,426,194.61,426c-2.08,0-3-1-2.68-3.05a5.06,5.06,0,0,0,1.22-3.06c.72-6.29,1.54-12.57,2.18-18.87.92-9,1.44-18.08,2.62-27.06,1.45-11.08,2.4-22.2,4-33.27,1.87-12.75,2.66-25.66,4.11-38.49,2.37-21,5-41.93,7.24-62.93.45-4.11,1.87-8.33.25-12.53,2.84-2.61,1.77-6.25,2-9.33,1.65-17.9,4.64-35.38,13.87-51.18A88.93,88.93,0,0,1,242,149.9c20.43-21.46,45.68-30.68,75-29.46,1.14,0,2.66-.46,2.95,1.43-.74,6.66-1.5,13.33-2.22,20q-1.65,15.21-3.24,30.41-1.78,16.86-3.55,33.71c-.9,8.53-1.88,17-2.71,25.58C307.32,240.84,305.39,250,305.79,259.42Z"/><path class="cls-3" d="M213.58,226.71c1.62,4.2.2,8.42-.25,12.53-2.26,21-4.87,41.95-7.24,62.93-1.45,12.83-2.24,25.74-4.11,38.49-1.63,11.07-2.58,22.19-4,33.27-1.18,9-1.7,18-2.62,27.06-.64,6.3-1.46,12.58-2.18,18.87a5.06,5.06,0,0,1-1.22,3.06q-11.24-31.73-22.45-63.46Q141.54,280,113.64,200.59a3.66,3.66,0,0,0-.62-.83c2-16.76,3.51-33.58,5.71-50.32,1.68-12.8,2.67-25.69,4.07-38.53,1.3-12,2.78-23.92,4.12-35.88,1.15-10.24,2.21-20.49,3.33-30.74,1.18-10.85,2.28-21.71,3.65-32.53.29-2.33-1-5.11,1.49-7q6.41,18,12.82,35.9,6.12,17.3,12.18,34.61,18.65,53,37.3,106.09Q205.66,204,213.58,226.71Z"/><path class="cls-4" d="M409.24,286.58c1.87-8.16,2.17-16.5,3-24.78,1.94-20,13.49-36.55,32.73-42.83,14.25-4.66,28.59-2.7,40.73,6.08,7,5.08,13.63,11.33,16.63,20.5,2.61,8,4.7,15.66,3.63,24.15-2.17,17.24-4,34.53-5.94,51.81-1.06,9.53-1.82,19.09-3.73,28.52a91.6,91.6,0,0,1-14.47,34.54c-15.57,22.34-36.45,36.16-63.71,39.92-7.11,1-14.19.61-21.29.61-2,0-2.63-1.07-2.61-2.83,1-7.88,2.05-15.75,2.94-23.64,1.34-11.73,2.53-23.47,3.83-35.2q2.21-19.81,4.51-39.62c.52-4.44.2-9,1-13.3A157.07,157.07,0,0,0,409.24,286.58Z"/><path class="cls-5" d="M409.24,286.58a157.07,157.07,0,0,1-2.77,23.93c-.81,4.26-.49,8.86-1,13.3q-2.32,19.8-4.51,39.62c-1.3,11.73-2.49,23.47-3.83,35.2-.89,7.89-1.95,15.76-2.94,23.64-14.37-26.47-28.68-53-43.15-79.38-14.79-27-28.95-54.34-44.2-81.09a22,22,0,0,1-1-2.38c-.4-9.39,1.53-18.58,2.43-27.86.83-8.54,1.81-17.05,2.71-25.58q1.79-16.86,3.55-33.71,1.61-15.21,3.24-30.41c.72-6.66,1.48-13.33,2.22-20,1.6.69,2.4,2.1,3.17,3.54L342.2,161.1Q375.73,223.83,409.24,286.58Z"/></g></g></svg>